<svg xmlns="http://www.w3.org/2000/svg" viewBox="0 0 352 312" width="352" height="312">
<rect x="26" y="106" width="20" height="20" fill="#3a6ea5"/>
<rect x="46" y="106" width="20" height="20" fill="#3a6ea5"/>
<rect x="66" y="106" width="20" height="20" fill="#3a6ea5"/>
<rect x="26" y="126" width="20" height="20" fill="#3a6ea5"/>
<rect x="46" y="126" width="20" height="20" fill="#3a6ea5"/>
<rect x="66" y="126" width="20" height="20" fill="#3a6ea5"/>
<rect x="26" y="146" width="20" height="20" fill="#3a6ea5"/>
<rect x="46" y="146" width="20" height="20" fill="#3a6ea5"/>
<rect x="66" y="146" width="20" height="20" fill="#3a6ea5"/>
<rect x="26" y="166" width="20" height="20" fill="#3a6ea5"/>
<rect x="46" y="166" width="20" height="20" fill="#3a6ea5"/>
<rect x="66" y="166" width="20" height="20" fill="#3a6ea5"/>
<rect x="26" y="186" width="20" height="20" fill="#3a6ea5"/>
<rect x="46" y="186" width="20" height="20" fill="#3a6ea5"/>
<rect x="66" y="186" width="20" height="20" fill="#3a6ea5"/>
<rect x="26" y="126" width="20" height="20" fill="#9fbcda"/>
<rect x="26" y="166" width="20" height="20" fill="#9fbcda"/>
<rect x="46" y="146" width="20" height="20" fill="#9fbcda"/>
<rect x="86" y="146" width="20" height="20" fill="#9fbcda"/>
<rect x="106" y="146" width="20" height="20" fill="#9fbcda"/>
<rect x="126" y="146" width="20" height="20" fill="#9fbcda"/>
<rect x="146" y="146" width="20" height="20" fill="#9fbcda"/>
<rect x="166" y="146" width="20" height="20" fill="#9fbcda"/>
<rect x="166" y="126" width="20" height="20" fill="#9fbcda"/>
<rect x="166" y="106" width="20" height="20" fill="#9fbcda"/>
<rect x="166" y="86" width="20" height="20" fill="#9fbcda"/>
<rect x="166" y="66" width="20" height="20" fill="#9fbcda"/>
<rect x="186" y="66" width="20" height="20" fill="#9fbcda"/>
<rect x="206" y="66" width="20" height="20" fill="#9fbcda"/>
<rect x="226" y="66" width="20" height="20" fill="#9fbcda"/>
<rect x="186" y="146" width="20" height="20" fill="#9fbcda"/>
<rect x="206" y="146" width="20" height="20" fill="#9fbcda"/>
<rect x="226" y="146" width="20" height="20" fill="#9fbcda"/>
<rect x="166" y="166" width="20" height="20" fill="#9fbcda"/>
<rect x="166" y="186" width="20" height="20" fill="#9fbcda"/>
<rect x="166" y="206" width="20" height="20" fill="#9fbcda"/>
<rect x="166" y="226" width="20" height="20" fill="#9fbcda"/>
<rect x="186" y="226" width="20" height="20" fill="#9fbcda"/>
<rect x="206" y="226" width="20" height="20" fill="#9fbcda"/>
<rect x="226" y="226" width="20" height="20" fill="#9fbcda"/>
<rect x="246" y="46" width="20" height="20" fill="#3a6ea5"/>
<rect x="246" y="66" width="20" height="20" fill="#3a6ea5"/>
<rect x="246" y="86" width="20" height="20" fill="#3a6ea5"/>
<rect x="266" y="46" width="20" height="20" fill="#3a6ea5"/>
<rect x="266" y="66" width="20" height="20" fill="#f5f0e8"/>
<rect x="266" y="86" width="20" height="20" fill="#3a6ea5"/>
<rect x="286" y="46" width="20" height="20" fill="#3a6ea5"/>
<rect x="286" y="66" width="20" height="20" fill="#3a6ea5"/>
<rect x="286" y="86" width="20" height="20" fill="#3a6ea5"/>
<rect x="246" y="126" width="20" height="20" fill="#3a6ea5"/>
<rect x="286" y="126" width="20" height="20" fill="#3a6ea5"/>
<rect x="246" y="166" width="20" height="20" fill="#3a6ea5"/>
<rect x="286" y="166" width="20" height="20" fill="#3a6ea5"/>
<rect x="246" y="206" width="20" height="20" fill="#3a6ea5"/>
<rect x="246" y="226" width="20" height="20" fill="#3a6ea5"/>
<rect x="246" y="246" width="20" height="20" fill="#3a6ea5"/>
<rect x="266" y="206" width="20" height="20" fill="#3a6ea5"/>
<rect x="266" y="226" width="20" height="20" fill="#3a6ea5"/>
<rect x="266" y="246" width="20" height="20" fill="#3a6ea5"/>
<rect x="286" y="206" width="20" height="20" fill="#3a6ea5"/>
<rect x="286" y="226" width="20" height="20" fill="#3a6ea5"/>
<rect x="286" y="246" width="20" height="20" fill="#3a6ea5"/>
<rect x="266" y="186" width="20" height="20" fill="#6e93bd"/>
<rect x="266" y="266" width="20" height="20" fill="#6e93bd"/>
<rect x="226" y="226" width="20" height="20" fill="#6e93bd"/>
<rect x="306" y="226" width="20" height="20" fill="#6e93bd"/>
<rect x="166" y="146" width="20" height="20" fill="#d97757"><animateTransform attributeName="transform" type="translate" calcMode="discrete" values="0,0;0,-80;60,-80;100,-80;0,0" keyTimes="0;0.25;0.5;0.75;1" dur="1.8s" begin="0s" repeatCount="indefinite"/></rect>
<rect x="166" y="146" width="20" height="20" fill="#d97757"><animateTransform attributeName="transform" type="translate" calcMode="discrete" values="0,0;60,0;100,0;100,0;0,0" keyTimes="0;0.4;0.8;0.9;1" dur="1.8s" begin="0.6s" repeatCount="indefinite"/></rect>
<rect x="166" y="146" width="20" height="20" fill="#d97757"><animateTransform attributeName="transform" type="translate" calcMode="discrete" values="0,0;0,80;60,80;100,80;0,0" keyTimes="0;0.25;0.5;0.75;1" dur="1.8s" begin="1.2s" repeatCount="indefinite"/></rect>
</svg>