<?xml version="1.0" encoding="UTF-8" standalone="no"?>
<svg
   id="Layer_2"
   data-name="Layer 2"
   viewBox="0 0 653.98883 252.42967"
   version="1.1"
   sodipodi:docname="Ruvald logo blaa_1.darkX.svg"
   inkscape:version="1.3.2 (091e20ef0f, 2023-11-25)"
   width="653.98883"
   height="252.42967"
   xmlns:inkscape="http://www.inkscape.org/namespaces/inkscape"
   xmlns:sodipodi="http://sodipodi.sourceforge.net/DTD/sodipodi-0.dtd"
   xmlns="http://www.w3.org/2000/svg"
   xmlns:svg="http://www.w3.org/2000/svg">
  <sodipodi:namedview
     id="namedview1"
     pagecolor="#2f2f2f"
     bordercolor="#666666"
     borderopacity="1.0"
     inkscape:showpageshadow="2"
     inkscape:pageopacity="0.0"
     inkscape:pagecheckerboard="0"
     inkscape:deskcolor="#2f2f2f"
     inkscape:zoom="1.6531637"
     inkscape:cx="213.52998"
     inkscape:cy="234.39906"
     inkscape:window-width="2560"
     inkscape:window-height="1377"
     inkscape:window-x="0"
     inkscape:window-y="0"
     inkscape:window-maximized="1"
     inkscape:current-layer="Layer_2" />
  <defs
     id="defs1">
    <style
       id="style1">
      .cls-1 {
        fill: #0b3245;
        stroke-width: 0px;
      }
    </style>
  </defs>
  <path
     id="path10"
     style="fill:#3a6ea5;fill-opacity:1;stroke-width:0px"
     d="m 573.61774,127.42859 c -15.05208,-0.002 -30.10416,-0.004 -45.15625,-0.006 0,41.66667 0,83.33334 0,125.00001 18.15984,-0.023 36.32071,0.0667 54.47984,-0.0764 13.16432,-0.38299 26.50997,-2.44139 38.53671,-8.02888 10.6295,-4.92413 19.99701,-12.98865 25.52549,-23.4076 4.95209,-9.22886 6.91453,-19.79628 6.98054,-30.19746 0.10399,-10.41707 -1.48568,-21.01937 -5.89823,-30.52611 -3.35445,-7.21157 -8.42074,-13.61428 -14.70596,-18.49281 -8.43595,-6.64267 -18.76123,-10.4811 -29.24308,-12.41973 -8.84582,-1.67996 -17.88105,-1.94915 -26.86202,-1.85088 -1.21901,0.002 -2.43802,0.004 -3.65704,0.006 z m 2.47852,18.01172 c 5.0276,0.0226 10.06536,-0.0725 15.08008,0.35742 1.58784,0.14517 3.38902,0.36425 5.049,0.62388 8.21974,1.2712 16.45961,4.08774 22.85725,9.56167 4.85714,4.1469 8.42323,9.70723 10.3719,15.77547 2.64774,8.08438 3.06765,16.74943 2.27227,25.17146 -0.86353,8.00633 -3.58274,16.02257 -8.90678,22.18292 -5.43797,6.32912 -13.08899,10.42285 -21.07443,12.56561 -5.82321,1.6219 -11.86046,2.33464 -17.88757,2.59946 -1.18529,0.0482 -2.62028,0.0929 -3.9035,0.10843 -10.10092,0.003 -20.20237,-0.008 -30.30353,-0.003 0,-29.64713 0,-59.29427 0,-88.94141 8.8151,-6.5e-4 17.6302,-0.001 26.44531,-0.002 z" />
  <path
     id="path8"
     style="fill:#3a6ea5;fill-opacity:1;stroke-width:0px"
     d="m 414.14118,129.41297 c 0,41 0,82 0,123 32.67643,0 65.35287,0 98.0293,0 0,-6.07357 0,-12.14714 0,-18.2207 -25.61328,0 -51.22656,0 -76.83985,0 0,-35.5931 0,-71.1862 0,-106.7793 -7.06315,0 -14.1263,0 -21.18945,0 0,0.66666 0,1.33333 0,2 z" />
  <path
     id="path6"
     style="fill:#3a6ea5;fill-opacity:1;stroke-width:0px"
     d="m 316.94782,128.55359 c -19.60155,41.28636 -39.20332,82.57352 -58.80664,123.85938 7.41341,0 14.82682,0 22.24023,0 16.04299,-34.89713 32.08594,-69.79427 48.12891,-104.69141 16.05007,34.89717 32.10064,69.7941 48.15039,104.69141 7.69987,0 15.39974,0 23.09961,0 -19.78456,-41.66602 -39.56541,-83.33381 -59.34961,-125 -7.63997,0 -15.27995,0 -22.91992,0 -0.18099,0.38021 -0.36198,0.76041 -0.54297,1.14062 z" />
  <path
     id="path5"
     style="fill:#3a6ea5;fill-opacity:1;stroke-width:0px"
     d="m 262.30273,2.8199661 c 18.2535,40.7268139 36.50551,81.4542909 54.75782,122.1816439 7.81966,0 15.63932,0 23.45898,0 18.67291,-41.666783 37.34541,-83.333761 56.01953,-125.0000029 -7.82422,0 -15.64844,0 -23.47265,0 C 358.42296,34.605856 343.77575,69.208517 329.13086,103.81216 314.48532,69.208517 299.83742,34.605873 285.19336,0.0016071 c -8.05143,0 -16.10287,0 -24.1543,0 0.42123,0.939453 0.84245,1.878906 1.26367,2.818359 z" />
  <path
     id="path4"
     style="fill:#3a6ea5;fill-opacity:1;stroke-width:0px"
     d="m 129.7207,2.0016071 c 0.0111,24.6380349 -0.0313,49.2765449 0.0301,73.9142799 0.20678,9.80972 1.90444,19.82862 6.67147,28.514243 4.64188,8.48099 12.51772,14.96361 21.45786,18.50832 9.7916,4.01726 20.49121,5.20825 31.00069,5.20865 10.99992,-0.0223 22.21374,-1.38955 32.35938,-5.85643 7.19936,-3.2007 13.73125,-8.18596 18.07853,-14.81926 5.35005,-7.954683 7.70684,-17.544113 8.3414,-27.012773 0.44375,-6.99639 0.1701,-14.01109 0.24023,-21.016014 0,-19.813672 0,-39.627344 0,-59.4410159 -7.0599,0 -14.11979,0 -21.17969,0 -0.01,25.8270099 0.0471,51.6549059 -0.0586,77.4813299 -0.27246,7.09795 -1.8562,14.4199 -6.09223,20.25854 -3.7826,5.231053 -9.66567,8.645343 -15.8394,10.265993 -0.65656,0.18293 -1.62046,0.4226 -2.40039,0.59766 -2.88163,0.62893 -5.81545,0.99853 -8.75781,1.18359 -0.37437,0.0122 -1.11514,0.0611 -1.5303,0.0726 -2.75525,0.1037 -5.47298,0.065 -8.17263,-0.0901 -7.20542,-0.43537 -14.59792,-1.99185 -20.66426,-6.08608 -5.89163,-3.967873 -9.68266,-10.515343 -11.13433,-17.384223 -1.65582,-7.31422 -1.05686,-14.85898 -1.16059,-22.292339 0,-21.335677 0,-42.671354 0,-64.0070309 -7.06315,0 -14.12631,0 -21.18946,0 0,0.666667 0,1.333333 0,2 z" />
  <path
     id="path3"
     style="fill:#3a6ea5;fill-opacity:1;stroke-width:0px"
     d="M 55.68946,0.0113731 C 37.1263,0.0083731 18.56315,0.0033731 0,0.0015731 0,41.671495 0,83.341413 0,125.01134 c 6.82683,0 13.65365,0 20.48047,0 0,-35.833337 0,-71.666668 0,-107.500001 13.81414,0.02746 27.62985,-0.07611 41.44289,0.09196 6.27695,0.280641 12.7887,1.086736 18.30639,4.311766 3.73006,2.288509 6.32614,6.232454 7.0919,10.528496 0.89535,4.330754 0.76502,8.936277 -0.67126,13.136139 -1.49008,4.037455 -4.58888,7.400816 -8.43674,9.3091 -4.16352,2.224141 -9.06516,3.189 -13.60037,3.614728 -1.25564,0.116143 -2.45731,0.18987 -3.77812,0.231209 -6.52604,0.212616 -13.05646,0.0097 -19.58438,0.08715 -1.08685,0 -2.17369,1e-6 -3.26054,0 0,5.836589 0,11.673178 0,17.509768 8.78841,0 17.57682,0 26.36523,0 9.36289,16.22316 18.72371,32.447515 28.08789,48.669925 7.93685,0 15.8737,0 23.81055,0 -9.67062,-16.50494 -19.42411,-32.957045 -29.00352,-49.498475 -0.81971,-2.14903 0.46273,-4.81214 2.64902,-5.52883 5.20556,-2.54484 10.04782,-6.087801 13.37364,-10.895581 3.64583,-5.115443 5.4717,-11.346124 5.8389,-17.57575 0.41065,-6.188751 -0.17318,-12.528886 -2.32601,-18.375788 C 104.8217,17.786316 101.386,12.97286 96.81641,9.5562611 90.23669,4.5357811 82.07232,2.1349501 73.98351,0.9548051 67.9298,0.0778721 61.79689,-0.0440349 55.68946,0.0113391 Z" />
</svg>
