<svg xmlns="http://www.w3.org/2000/svg" viewBox="0 0 272 292" width="272" height="292">
<rect x="126" y="26" width="20" height="20" fill="#6e93bd"/>
<rect x="66" y="46" width="20" height="20" fill="#3a6ea5"/>
<rect x="86" y="46" width="20" height="20" fill="#3a6ea5"/>
<rect x="106" y="46" width="20" height="20" fill="#3a6ea5"/>
<rect x="126" y="46" width="20" height="20" fill="#3a6ea5"/>
<rect x="146" y="46" width="20" height="20" fill="#3a6ea5"/>
<rect x="166" y="46" width="20" height="20" fill="#3a6ea5"/>
<rect x="186" y="46" width="20" height="20" fill="#3a6ea5"/>
<rect x="46" y="66" width="20" height="20" fill="#3a6ea5"/>
<rect x="66" y="66" width="20" height="20" fill="#3a6ea5"/>
<rect x="86" y="66" width="20" height="20" fill="#3a6ea5"/>
<rect x="106" y="66" width="20" height="20" fill="#3a6ea5"/>
<rect x="126" y="66" width="20" height="20" fill="#3a6ea5"/>
<rect x="146" y="66" width="20" height="20" fill="#3a6ea5"/>
<rect x="166" y="66" width="20" height="20" fill="#3a6ea5"/>
<rect x="186" y="66" width="20" height="20" fill="#3a6ea5"/>
<rect x="206" y="66" width="20" height="20" fill="#3a6ea5"/>
<rect x="26" y="86" width="20" height="20" fill="#3a6ea5"/>
<rect x="46" y="86" width="20" height="20" fill="#3a6ea5"/>
<rect x="66" y="86" width="20" height="20" fill="#9fbcda"/>
<rect x="86" y="86" width="20" height="20" fill="#9fbcda"/>
<rect x="106" y="86" width="20" height="20" fill="#9fbcda"/>
<rect x="126" y="86" width="20" height="20" fill="#9fbcda"/>
<rect x="146" y="86" width="20" height="20" fill="#9fbcda"/>
<rect x="166" y="86" width="20" height="20" fill="#9fbcda"/>
<rect x="186" y="86" width="20" height="20" fill="#9fbcda"/>
<rect x="206" y="86" width="20" height="20" fill="#3a6ea5"/>
<rect x="226" y="86" width="20" height="20" fill="#3a6ea5"/>
<rect x="26" y="106" width="20" height="20" fill="#3a6ea5"/>
<rect x="46" y="106" width="20" height="20" fill="#3a6ea5"/>
<rect x="66" y="106" width="20" height="20" fill="#9fbcda"/>
<rect x="86" y="106" width="20" height="20" fill="#f5f0e8"/>
<rect x="106" y="106" width="20" height="20" fill="#f5f0e8"/>
<rect x="126" y="106" width="20" height="20" fill="#f5f0e8"/>
<rect x="146" y="106" width="20" height="20" fill="#f5f0e8"/>
<rect x="166" y="106" width="20" height="20" fill="#f5f0e8"/>
<rect x="186" y="106" width="20" height="20" fill="#9fbcda"/>
<rect x="206" y="106" width="20" height="20" fill="#3a6ea5"/>
<rect x="226" y="106" width="20" height="20" fill="#3a6ea5"/>
<rect x="26" y="126" width="20" height="20" fill="#3a6ea5"/>
<rect x="46" y="126" width="20" height="20" fill="#3a6ea5"/>
<rect x="66" y="126" width="20" height="20" fill="#9fbcda"/>
<rect x="86" y="126" width="20" height="20" fill="#f5f0e8"/>
<rect x="166" y="126" width="20" height="20" fill="#f5f0e8"/>
<rect x="186" y="126" width="20" height="20" fill="#9fbcda"/>
<rect x="206" y="126" width="20" height="20" fill="#3a6ea5"/>
<rect x="226" y="126" width="20" height="20" fill="#3a6ea5"/>
<rect x="26" y="146" width="20" height="20" fill="#3a6ea5"/>
<rect x="46" y="146" width="20" height="20" fill="#3a6ea5"/>
<rect x="66" y="146" width="20" height="20" fill="#9fbcda"/>
<rect x="86" y="146" width="20" height="20" fill="#f5f0e8"/>
<rect x="166" y="146" width="20" height="20" fill="#f5f0e8"/>
<rect x="186" y="146" width="20" height="20" fill="#9fbcda"/>
<rect x="206" y="146" width="20" height="20" fill="#3a6ea5"/>
<rect x="226" y="146" width="20" height="20" fill="#3a6ea5"/>
<rect x="26" y="166" width="20" height="20" fill="#3a6ea5"/>
<rect x="46" y="166" width="20" height="20" fill="#3a6ea5"/>
<rect x="66" y="166" width="20" height="20" fill="#9fbcda"/>
<rect x="86" y="166" width="20" height="20" fill="#f5f0e8"/>
<rect x="166" y="166" width="20" height="20" fill="#f5f0e8"/>
<rect x="186" y="166" width="20" height="20" fill="#9fbcda"/>
<rect x="206" y="166" width="20" height="20" fill="#3a6ea5"/>
<rect x="226" y="166" width="20" height="20" fill="#3a6ea5"/>
<rect x="26" y="186" width="20" height="20" fill="#3a6ea5"/>
<rect x="46" y="186" width="20" height="20" fill="#3a6ea5"/>
<rect x="66" y="186" width="20" height="20" fill="#9fbcda"/>
<rect x="86" y="186" width="20" height="20" fill="#f5f0e8"/>
<rect x="106" y="186" width="20" height="20" fill="#f5f0e8"/>
<rect x="126" y="186" width="20" height="20" fill="#f5f0e8"/>
<rect x="146" y="186" width="20" height="20" fill="#f5f0e8"/>
<rect x="166" y="186" width="20" height="20" fill="#f5f0e8"/>
<rect x="186" y="186" width="20" height="20" fill="#9fbcda"/>
<rect x="206" y="186" width="20" height="20" fill="#3a6ea5"/>
<rect x="226" y="186" width="20" height="20" fill="#3a6ea5"/>
<rect x="26" y="206" width="20" height="20" fill="#3a6ea5"/>
<rect x="46" y="206" width="20" height="20" fill="#3a6ea5"/>
<rect x="66" y="206" width="20" height="20" fill="#9fbcda"/>
<rect x="86" y="206" width="20" height="20" fill="#9fbcda"/>
<rect x="106" y="206" width="20" height="20" fill="#9fbcda"/>
<rect x="126" y="206" width="20" height="20" fill="#9fbcda"/>
<rect x="146" y="206" width="20" height="20" fill="#9fbcda"/>
<rect x="166" y="206" width="20" height="20" fill="#9fbcda"/>
<rect x="186" y="206" width="20" height="20" fill="#9fbcda"/>
<rect x="206" y="206" width="20" height="20" fill="#3a6ea5"/>
<rect x="226" y="206" width="20" height="20" fill="#3a6ea5"/>
<rect x="46" y="226" width="20" height="20" fill="#3a6ea5"/>
<rect x="66" y="226" width="20" height="20" fill="#3a6ea5"/>
<rect x="86" y="226" width="20" height="20" fill="#3a6ea5"/>
<rect x="106" y="226" width="20" height="20" fill="#3a6ea5"/>
<rect x="126" y="226" width="20" height="20" fill="#3a6ea5"/>
<rect x="146" y="226" width="20" height="20" fill="#3a6ea5"/>
<rect x="166" y="226" width="20" height="20" fill="#3a6ea5"/>
<rect x="186" y="226" width="20" height="20" fill="#3a6ea5"/>
<rect x="206" y="226" width="20" height="20" fill="#3a6ea5"/>
<rect x="126" y="246" width="20" height="20" fill="#6e93bd"/>
<rect x="86" y="266" width="20" height="20" fill="#6e93bd"/>
<rect x="106" y="266" width="20" height="20" fill="#6e93bd"/>
<rect x="126" y="266" width="20" height="20" fill="#6e93bd"/>
<rect x="146" y="266" width="20" height="20" fill="#6e93bd"/>
<rect x="166" y="266" width="20" height="20" fill="#6e93bd"/>
<rect x="126" y="6" width="20" height="20" fill="#d97757"><animate attributeName="opacity" values="1;1;0.15;0.15" keyTimes="0;0.48;0.5;1" dur="1.3s" calcMode="discrete" repeatCount="indefinite"/></rect>
<g><animateTransform attributeName="transform" type="translate" calcMode="discrete" values="0,0;-20,0;0,0;20,0;0,0" keyTimes="0;0.2;0.45;0.7;1" dur="3.4s" repeatCount="indefinite"/><rect x="106" y="126" width="20" height="20" fill="#21456b"/><rect x="126" y="126" width="20" height="20" fill="#21456b"/><rect x="146" y="126" width="20" height="20" fill="#21456b"/><rect x="106" y="146" width="20" height="20" fill="#21456b"/><rect x="126" y="146" width="20" height="20" fill="#d97757"/><rect x="146" y="146" width="20" height="20" fill="#21456b"/><rect x="106" y="166" width="20" height="20" fill="#21456b"/><rect x="126" y="166" width="20" height="20" fill="#21456b"/><rect x="146" y="166" width="20" height="20" fill="#21456b"/></g>
</svg>