<svg xmlns="http://www.w3.org/2000/svg" viewBox="0 0 714 468" id="anagram-fig" width="100%" style="max-width:720px;height:auto" font-family="ui-monospace,Menlo,Consolas,monospace">
<style>#anagram-fig .strand{cursor:pointer}#anagram-fig .wire{transition:stroke-width .1s ease,opacity .1s ease}#anagram-fig .box rect{transition:stroke .1s ease,stroke-width .1s ease}#anagram-fig .strand:hover .wire{stroke-width:5;opacity:1}#anagram-fig .strand:hover .head{transform:scale(1.4);transform-box:fill-box;transform-origin:center bottom}#anagram-fig .strand:hover .box rect{stroke:var(--c);stroke-width:3}#anagram-fig text{pointer-events:none;user-select:none}</style>
<rect x="0" y="0" width="714" height="468" fill="#f5f0e8"/>
<g class="strand" style="--c:#e6194B">
<path class="hit" d="M 70.0 86.0 C 70.0 124.7 134.0 133.3 134.0 171.0" fill="none" stroke="transparent" stroke-width="12" pointer-events="stroke"/>
<path class="wire" d="M 70.0 86.0 C 70.0 124.7 134.0 133.3 134.0 171.0" fill="none" stroke="#e6194B" stroke-width="1.6" opacity="0.75"/>
<path class="head" d="M 130.0 165.0 L 138.0 165.0 L 134.0 172.0 Z" fill="#e6194B"/>
<path class="hit" d="M 134.0 204.0 C 134.0 242.7 248.0 251.3 248.0 289.0" fill="none" stroke="transparent" stroke-width="12" pointer-events="stroke"/>
<path class="wire" d="M 134.0 204.0 C 134.0 242.7 248.0 251.3 248.0 289.0" fill="none" stroke="#e6194B" stroke-width="1.6" opacity="0.75"/>
<path class="head" d="M 244.0 283.0 L 252.0 283.0 L 248.0 290.0 Z" fill="#e6194B"/>
<path class="hit" d="M 248.0 322.0 C 248.0 360.7 216.0 369.3 216.0 407.0" fill="none" stroke="transparent" stroke-width="12" pointer-events="stroke"/>
<path class="wire" d="M 248.0 322.0 C 248.0 360.7 216.0 369.3 216.0 407.0" fill="none" stroke="#e6194B" stroke-width="1.6" opacity="0.75"/>
<path class="head" d="M 212.0 401.0 L 220.0 401.0 L 216.0 408.0 Z" fill="#e6194B"/>
<g class="box"><rect x="56.0" y="54.0" width="28" height="32" rx="3" fill="#f5f0e8" stroke="#f5f0e8" stroke-width="1"/><text x="70.0" y="75.8" text-anchor="middle" font-size="18" font-weight="700" fill="#26364a">A</text></g>
<g class="box"><rect x="120.0" y="172.0" width="28" height="32" rx="3" fill="#f5f0e8" stroke="#f5f0e8" stroke-width="1"/><text x="134.0" y="193.8" text-anchor="middle" font-size="18" font-weight="700" fill="#26364a">A</text></g>
<g class="box"><rect x="234.0" y="290.0" width="28" height="32" rx="3" fill="#f5f0e8" stroke="#f5f0e8" stroke-width="1"/><text x="248.0" y="311.8" text-anchor="middle" font-size="18" font-weight="700" fill="#26364a">A</text></g>
<g class="box"><rect x="202.0" y="408.0" width="28" height="32" rx="3" fill="#f5f0e8" stroke="#f5f0e8" stroke-width="1"/><text x="216.0" y="429.8" text-anchor="middle" font-size="18" font-weight="700" fill="#26364a">A</text></g>
</g>
<g class="strand" style="--c:#e6194B">
<path class="hit" d="M 280.0 86.0 C 280.0 124.7 426.0 133.3 426.0 171.0" fill="none" stroke="transparent" stroke-width="12" pointer-events="stroke"/>
<path class="wire" d="M 280.0 86.0 C 280.0 124.7 426.0 133.3 426.0 171.0" fill="none" stroke="#e6194B" stroke-width="1.6" opacity="0.75"/>
<path class="head" d="M 422.0 165.0 L 430.0 165.0 L 426.0 172.0 Z" fill="#e6194B"/>
<path class="hit" d="M 426.0 204.0 C 426.0 242.7 394.0 251.3 394.0 289.0" fill="none" stroke="transparent" stroke-width="12" pointer-events="stroke"/>
<path class="wire" d="M 426.0 204.0 C 426.0 242.7 394.0 251.3 394.0 289.0" fill="none" stroke="#e6194B" stroke-width="1.6" opacity="0.75"/>
<path class="head" d="M 390.0 283.0 L 398.0 283.0 L 394.0 290.0 Z" fill="#e6194B"/>
<path class="hit" d="M 394.0 322.0 C 394.0 360.7 298.0 369.3 298.0 407.0" fill="none" stroke="transparent" stroke-width="12" pointer-events="stroke"/>
<path class="wire" d="M 394.0 322.0 C 394.0 360.7 298.0 369.3 298.0 407.0" fill="none" stroke="#e6194B" stroke-width="1.6" opacity="0.75"/>
<path class="head" d="M 294.0 401.0 L 302.0 401.0 L 298.0 408.0 Z" fill="#e6194B"/>
<g class="box"><rect x="266.0" y="54.0" width="28" height="32" rx="3" fill="#f5f0e8" stroke="#f5f0e8" stroke-width="1"/><text x="280.0" y="75.8" text-anchor="middle" font-size="18" font-weight="700" fill="#26364a">A</text></g>
<g class="box"><rect x="412.0" y="172.0" width="28" height="32" rx="3" fill="#f5f0e8" stroke="#f5f0e8" stroke-width="1"/><text x="426.0" y="193.8" text-anchor="middle" font-size="18" font-weight="700" fill="#26364a">A</text></g>
<g class="box"><rect x="380.0" y="290.0" width="28" height="32" rx="3" fill="#f5f0e8" stroke="#f5f0e8" stroke-width="1"/><text x="394.0" y="311.8" text-anchor="middle" font-size="18" font-weight="700" fill="#26364a">A</text></g>
<g class="box"><rect x="284.0" y="408.0" width="28" height="32" rx="3" fill="#f5f0e8" stroke="#f5f0e8" stroke-width="1"/><text x="298.0" y="429.8" text-anchor="middle" font-size="18" font-weight="700" fill="#26364a">A</text></g>
</g>
<g class="strand" style="--c:#3cb44b">
<path class="hit" d="M 344.0 86.0 C 344.0 124.7 458.0 133.3 458.0 171.0" fill="none" stroke="transparent" stroke-width="12" pointer-events="stroke"/>
<path class="wire" d="M 344.0 86.0 C 344.0 124.7 458.0 133.3 458.0 171.0" fill="none" stroke="#3cb44b" stroke-width="1.6" opacity="0.75"/>
<path class="head" d="M 454.0 165.0 L 462.0 165.0 L 458.0 172.0 Z" fill="#3cb44b"/>
<path class="hit" d="M 458.0 204.0 C 458.0 242.7 362.0 251.3 362.0 289.0" fill="none" stroke="transparent" stroke-width="12" pointer-events="stroke"/>
<path class="wire" d="M 458.0 204.0 C 458.0 242.7 362.0 251.3 362.0 289.0" fill="none" stroke="#3cb44b" stroke-width="1.6" opacity="0.75"/>
<path class="head" d="M 358.0 283.0 L 366.0 283.0 L 362.0 290.0 Z" fill="#3cb44b"/>
<path class="hit" d="M 362.0 322.0 C 362.0 360.7 362.0 369.3 362.0 407.0" fill="none" stroke="transparent" stroke-width="12" pointer-events="stroke"/>
<path class="wire" d="M 362.0 322.0 C 362.0 360.7 362.0 369.3 362.0 407.0" fill="none" stroke="#3cb44b" stroke-width="1.6" opacity="0.75"/>
<path class="head" d="M 358.0 401.0 L 366.0 401.0 L 362.0 408.0 Z" fill="#3cb44b"/>
<g class="box"><rect x="330.0" y="54.0" width="28" height="32" rx="3" fill="#f5f0e8" stroke="#f5f0e8" stroke-width="1"/><text x="344.0" y="75.8" text-anchor="middle" font-size="18" font-weight="700" fill="#26364a">D</text></g>
<g class="box"><rect x="444.0" y="172.0" width="28" height="32" rx="3" fill="#f5f0e8" stroke="#f5f0e8" stroke-width="1"/><text x="458.0" y="193.8" text-anchor="middle" font-size="18" font-weight="700" fill="#26364a">D</text></g>
<g class="box"><rect x="348.0" y="290.0" width="28" height="32" rx="3" fill="#f5f0e8" stroke="#f5f0e8" stroke-width="1"/><text x="362.0" y="311.8" text-anchor="middle" font-size="18" font-weight="700" fill="#26364a">D</text></g>
<g class="box"><rect x="348.0" y="408.0" width="28" height="32" rx="3" fill="#f5f0e8" stroke="#f5f0e8" stroke-width="1"/><text x="362.0" y="429.8" text-anchor="middle" font-size="18" font-weight="700" fill="#26364a">D</text></g>
</g>
<g class="strand" style="--c:#3cb44b">
<path class="hit" d="M 458.0 86.0 C 458.0 124.7 490.0 133.3 490.0 171.0" fill="none" stroke="transparent" stroke-width="12" pointer-events="stroke"/>
<path class="wire" d="M 458.0 86.0 C 458.0 124.7 490.0 133.3 490.0 171.0" fill="none" stroke="#3cb44b" stroke-width="1.6" opacity="0.75"/>
<path class="head" d="M 486.0 165.0 L 494.0 165.0 L 490.0 172.0 Z" fill="#3cb44b"/>
<path class="hit" d="M 490.0 204.0 C 490.0 242.7 426.0 251.3 426.0 289.0" fill="none" stroke="transparent" stroke-width="12" pointer-events="stroke"/>
<path class="wire" d="M 490.0 204.0 C 490.0 242.7 426.0 251.3 426.0 289.0" fill="none" stroke="#3cb44b" stroke-width="1.6" opacity="0.75"/>
<path class="head" d="M 422.0 283.0 L 430.0 283.0 L 426.0 290.0 Z" fill="#3cb44b"/>
<path class="hit" d="M 426.0 322.0 C 426.0 360.7 412.0 369.3 412.0 407.0" fill="none" stroke="transparent" stroke-width="12" pointer-events="stroke"/>
<path class="wire" d="M 426.0 322.0 C 426.0 360.7 412.0 369.3 412.0 407.0" fill="none" stroke="#3cb44b" stroke-width="1.6" opacity="0.75"/>
<path class="head" d="M 408.0 401.0 L 416.0 401.0 L 412.0 408.0 Z" fill="#3cb44b"/>
<g class="box"><rect x="444.0" y="54.0" width="28" height="32" rx="3" fill="#f5f0e8" stroke="#f5f0e8" stroke-width="1"/><text x="458.0" y="75.8" text-anchor="middle" font-size="18" font-weight="700" fill="#26364a">D</text></g>
<g class="box"><rect x="476.0" y="172.0" width="28" height="32" rx="3" fill="#f5f0e8" stroke="#f5f0e8" stroke-width="1"/><text x="490.0" y="193.8" text-anchor="middle" font-size="18" font-weight="700" fill="#26364a">D</text></g>
<g class="box"><rect x="412.0" y="290.0" width="28" height="32" rx="3" fill="#f5f0e8" stroke="#f5f0e8" stroke-width="1"/><text x="426.0" y="311.8" text-anchor="middle" font-size="18" font-weight="700" fill="#26364a">D</text></g>
<g class="box"><rect x="398.0" y="408.0" width="28" height="32" rx="3" fill="#f5f0e8" stroke="#f5f0e8" stroke-width="1"/><text x="412.0" y="429.8" text-anchor="middle" font-size="18" font-weight="700" fill="#26364a">D</text></g>
</g>
<g class="strand" style="--c:#4363d8">
<path class="hit" d="M 426.0 86.0 C 426.0 124.7 70.0 133.3 70.0 171.0" fill="none" stroke="transparent" stroke-width="12" pointer-events="stroke"/>
<path class="wire" d="M 426.0 86.0 C 426.0 124.7 70.0 133.3 70.0 171.0" fill="none" stroke="#4363d8" stroke-width="1.6" opacity="0.75"/>
<path class="head" d="M 66.0 165.0 L 74.0 165.0 L 70.0 172.0 Z" fill="#4363d8"/>
<path class="hit" d="M 70.0 204.0 C 70.0 242.7 70.0 251.3 70.0 289.0" fill="none" stroke="transparent" stroke-width="12" pointer-events="stroke"/>
<path class="wire" d="M 70.0 204.0 C 70.0 242.7 70.0 251.3 70.0 289.0" fill="none" stroke="#4363d8" stroke-width="1.6" opacity="0.75"/>
<path class="head" d="M 66.0 283.0 L 74.0 283.0 L 70.0 290.0 Z" fill="#4363d8"/>
<path class="hit" d="M 70.0 322.0 C 70.0 360.7 70.0 369.3 70.0 407.0" fill="none" stroke="transparent" stroke-width="12" pointer-events="stroke"/>
<path class="wire" d="M 70.0 322.0 C 70.0 360.7 70.0 369.3 70.0 407.0" fill="none" stroke="#4363d8" stroke-width="1.6" opacity="0.75"/>
<path class="head" d="M 66.0 401.0 L 74.0 401.0 L 70.0 408.0 Z" fill="#4363d8"/>
<g class="box"><rect x="412.0" y="54.0" width="28" height="32" rx="3" fill="#f5f0e8" stroke="#f5f0e8" stroke-width="1"/><text x="426.0" y="75.8" text-anchor="middle" font-size="18" font-weight="700" fill="#26364a">E</text></g>
<g class="box"><rect x="56.0" y="172.0" width="28" height="32" rx="3" fill="#f5f0e8" stroke="#f5f0e8" stroke-width="1"/><text x="70.0" y="193.8" text-anchor="middle" font-size="18" font-weight="700" fill="#26364a">E</text></g>
<g class="box"><rect x="56.0" y="290.0" width="28" height="32" rx="3" fill="#f5f0e8" stroke="#f5f0e8" stroke-width="1"/><text x="70.0" y="311.8" text-anchor="middle" font-size="18" font-weight="700" fill="#26364a">E</text></g>
<g class="box"><rect x="56.0" y="408.0" width="28" height="32" rx="3" fill="#f5f0e8" stroke="#f5f0e8" stroke-width="1"/><text x="70.0" y="429.8" text-anchor="middle" font-size="18" font-weight="700" fill="#26364a">E</text></g>
</g>
<g class="strand" style="--c:#4363d8">
<path class="hit" d="M 490.0 86.0 C 490.0 124.7 280.0 133.3 280.0 171.0" fill="none" stroke="transparent" stroke-width="12" pointer-events="stroke"/>
<path class="wire" d="M 490.0 86.0 C 490.0 124.7 280.0 133.3 280.0 171.0" fill="none" stroke="#4363d8" stroke-width="1.6" opacity="0.75"/>
<path class="head" d="M 276.0 165.0 L 284.0 165.0 L 280.0 172.0 Z" fill="#4363d8"/>
<path class="hit" d="M 280.0 204.0 C 280.0 242.7 134.0 251.3 134.0 289.0" fill="none" stroke="transparent" stroke-width="12" pointer-events="stroke"/>
<path class="wire" d="M 280.0 204.0 C 280.0 242.7 134.0 251.3 134.0 289.0" fill="none" stroke="#4363d8" stroke-width="1.6" opacity="0.75"/>
<path class="head" d="M 130.0 283.0 L 138.0 283.0 L 134.0 290.0 Z" fill="#4363d8"/>
<path class="hit" d="M 134.0 322.0 C 134.0 360.7 134.0 369.3 134.0 407.0" fill="none" stroke="transparent" stroke-width="12" pointer-events="stroke"/>
<path class="wire" d="M 134.0 322.0 C 134.0 360.7 134.0 369.3 134.0 407.0" fill="none" stroke="#4363d8" stroke-width="1.6" opacity="0.75"/>
<path class="head" d="M 130.0 401.0 L 138.0 401.0 L 134.0 408.0 Z" fill="#4363d8"/>
<g class="box"><rect x="476.0" y="54.0" width="28" height="32" rx="3" fill="#f5f0e8" stroke="#f5f0e8" stroke-width="1"/><text x="490.0" y="75.8" text-anchor="middle" font-size="18" font-weight="700" fill="#26364a">E</text></g>
<g class="box"><rect x="266.0" y="172.0" width="28" height="32" rx="3" fill="#f5f0e8" stroke="#f5f0e8" stroke-width="1"/><text x="280.0" y="193.8" text-anchor="middle" font-size="18" font-weight="700" fill="#26364a">E</text></g>
<g class="box"><rect x="120.0" y="290.0" width="28" height="32" rx="3" fill="#f5f0e8" stroke="#f5f0e8" stroke-width="1"/><text x="134.0" y="311.8" text-anchor="middle" font-size="18" font-weight="700" fill="#26364a">E</text></g>
<g class="box"><rect x="120.0" y="408.0" width="28" height="32" rx="3" fill="#f5f0e8" stroke="#f5f0e8" stroke-width="1"/><text x="134.0" y="429.8" text-anchor="middle" font-size="18" font-weight="700" fill="#26364a">E</text></g>
</g>
<g class="strand" style="--c:#4363d8">
<path class="hit" d="M 586.0 86.0 C 586.0 124.7 344.0 133.3 344.0 171.0" fill="none" stroke="transparent" stroke-width="12" pointer-events="stroke"/>
<path class="wire" d="M 586.0 86.0 C 586.0 124.7 344.0 133.3 344.0 171.0" fill="none" stroke="#4363d8" stroke-width="1.6" opacity="0.75"/>
<path class="head" d="M 340.0 165.0 L 348.0 165.0 L 344.0 172.0 Z" fill="#4363d8"/>
<path class="hit" d="M 344.0 204.0 C 344.0 242.7 540.0 251.3 540.0 289.0" fill="none" stroke="transparent" stroke-width="12" pointer-events="stroke"/>
<path class="wire" d="M 344.0 204.0 C 344.0 242.7 540.0 251.3 540.0 289.0" fill="none" stroke="#4363d8" stroke-width="1.6" opacity="0.75"/>
<path class="head" d="M 536.0 283.0 L 544.0 283.0 L 540.0 290.0 Z" fill="#4363d8"/>
<path class="hit" d="M 540.0 322.0 C 540.0 360.7 444.0 369.3 444.0 407.0" fill="none" stroke="transparent" stroke-width="12" pointer-events="stroke"/>
<path class="wire" d="M 540.0 322.0 C 540.0 360.7 444.0 369.3 444.0 407.0" fill="none" stroke="#4363d8" stroke-width="1.6" opacity="0.75"/>
<path class="head" d="M 440.0 401.0 L 448.0 401.0 L 444.0 408.0 Z" fill="#4363d8"/>
<g class="box"><rect x="572.0" y="54.0" width="28" height="32" rx="3" fill="#f5f0e8" stroke="#f5f0e8" stroke-width="1"/><text x="586.0" y="75.8" text-anchor="middle" font-size="18" font-weight="700" fill="#26364a">E</text></g>
<g class="box"><rect x="330.0" y="172.0" width="28" height="32" rx="3" fill="#f5f0e8" stroke="#f5f0e8" stroke-width="1"/><text x="344.0" y="193.8" text-anchor="middle" font-size="18" font-weight="700" fill="#26364a">E</text></g>
<g class="box"><rect x="526.0" y="290.0" width="28" height="32" rx="3" fill="#f5f0e8" stroke="#f5f0e8" stroke-width="1"/><text x="540.0" y="311.8" text-anchor="middle" font-size="18" font-weight="700" fill="#26364a">E</text></g>
<g class="box"><rect x="430.0" y="408.0" width="28" height="32" rx="3" fill="#f5f0e8" stroke="#f5f0e8" stroke-width="1"/><text x="444.0" y="429.8" text-anchor="middle" font-size="18" font-weight="700" fill="#26364a">E</text></g>
</g>
<g class="strand" style="--c:#f58231">
<path class="hit" d="M 134.0 86.0 C 134.0 124.7 198.0 133.3 198.0 171.0" fill="none" stroke="transparent" stroke-width="12" pointer-events="stroke"/>
<path class="wire" d="M 134.0 86.0 C 134.0 124.7 198.0 133.3 198.0 171.0" fill="none" stroke="#f58231" stroke-width="1.6" opacity="0.75"/>
<path class="head" d="M 194.0 165.0 L 202.0 165.0 L 198.0 172.0 Z" fill="#f58231"/>
<path class="hit" d="M 198.0 204.0 C 198.0 242.7 312.0 251.3 312.0 289.0" fill="none" stroke="transparent" stroke-width="12" pointer-events="stroke"/>
<path class="wire" d="M 198.0 204.0 C 198.0 242.7 312.0 251.3 312.0 289.0" fill="none" stroke="#f58231" stroke-width="1.6" opacity="0.75"/>
<path class="head" d="M 308.0 283.0 L 316.0 283.0 L 312.0 290.0 Z" fill="#f58231"/>
<path class="hit" d="M 312.0 322.0 C 312.0 360.7 508.0 369.3 508.0 407.0" fill="none" stroke="transparent" stroke-width="12" pointer-events="stroke"/>
<path class="wire" d="M 312.0 322.0 C 312.0 360.7 508.0 369.3 508.0 407.0" fill="none" stroke="#f58231" stroke-width="1.6" opacity="0.75"/>
<path class="head" d="M 504.0 401.0 L 512.0 401.0 L 508.0 408.0 Z" fill="#f58231"/>
<g class="box"><rect x="120.0" y="54.0" width="28" height="32" rx="3" fill="#f5f0e8" stroke="#f5f0e8" stroke-width="1"/><text x="134.0" y="75.8" text-anchor="middle" font-size="18" font-weight="700" fill="#26364a">K</text></g>
<g class="box"><rect x="184.0" y="172.0" width="28" height="32" rx="3" fill="#f5f0e8" stroke="#f5f0e8" stroke-width="1"/><text x="198.0" y="193.8" text-anchor="middle" font-size="18" font-weight="700" fill="#26364a">K</text></g>
<g class="box"><rect x="298.0" y="290.0" width="28" height="32" rx="3" fill="#f5f0e8" stroke="#f5f0e8" stroke-width="1"/><text x="312.0" y="311.8" text-anchor="middle" font-size="18" font-weight="700" fill="#26364a">K</text></g>
<g class="box"><rect x="494.0" y="408.0" width="28" height="32" rx="3" fill="#f5f0e8" stroke="#f5f0e8" stroke-width="1"/><text x="508.0" y="429.8" text-anchor="middle" font-size="18" font-weight="700" fill="#26364a">K</text></g>
</g>
<g class="strand" style="--c:#911eb4">
<path class="hit" d="M 312.0 86.0 C 312.0 124.7 572.0 133.3 572.0 171.0" fill="none" stroke="transparent" stroke-width="12" pointer-events="stroke"/>
<path class="wire" d="M 312.0 86.0 C 312.0 124.7 572.0 133.3 572.0 171.0" fill="none" stroke="#911eb4" stroke-width="1.6" opacity="0.75"/>
<path class="head" d="M 568.0 165.0 L 576.0 165.0 L 572.0 172.0 Z" fill="#911eb4"/>
<path class="hit" d="M 572.0 204.0 C 572.0 242.7 508.0 251.3 508.0 289.0" fill="none" stroke="transparent" stroke-width="12" pointer-events="stroke"/>
<path class="wire" d="M 572.0 204.0 C 572.0 242.7 508.0 251.3 508.0 289.0" fill="none" stroke="#911eb4" stroke-width="1.6" opacity="0.75"/>
<path class="head" d="M 504.0 283.0 L 512.0 283.0 L 508.0 290.0 Z" fill="#911eb4"/>
<path class="hit" d="M 508.0 322.0 C 508.0 360.7 266.0 369.3 266.0 407.0" fill="none" stroke="transparent" stroke-width="12" pointer-events="stroke"/>
<path class="wire" d="M 508.0 322.0 C 508.0 360.7 266.0 369.3 266.0 407.0" fill="none" stroke="#911eb4" stroke-width="1.6" opacity="0.75"/>
<path class="head" d="M 262.0 401.0 L 270.0 401.0 L 266.0 408.0 Z" fill="#911eb4"/>
<g class="box"><rect x="298.0" y="54.0" width="28" height="32" rx="3" fill="#f5f0e8" stroke="#f5f0e8" stroke-width="1"/><text x="312.0" y="75.8" text-anchor="middle" font-size="18" font-weight="700" fill="#26364a">L</text></g>
<g class="box"><rect x="558.0" y="172.0" width="28" height="32" rx="3" fill="#f5f0e8" stroke="#f5f0e8" stroke-width="1"/><text x="572.0" y="193.8" text-anchor="middle" font-size="18" font-weight="700" fill="#26364a">L</text></g>
<g class="box"><rect x="494.0" y="290.0" width="28" height="32" rx="3" fill="#f5f0e8" stroke="#f5f0e8" stroke-width="1"/><text x="508.0" y="311.8" text-anchor="middle" font-size="18" font-weight="700" fill="#26364a">L</text></g>
<g class="box"><rect x="252.0" y="408.0" width="28" height="32" rx="3" fill="#f5f0e8" stroke="#f5f0e8" stroke-width="1"/><text x="266.0" y="429.8" text-anchor="middle" font-size="18" font-weight="700" fill="#26364a">L</text></g>
</g>
<g class="strand" style="--c:#f032e6">
<path class="hit" d="M 38.0 86.0 C 38.0 124.7 102.0 133.3 102.0 171.0" fill="none" stroke="transparent" stroke-width="12" pointer-events="stroke"/>
<path class="wire" d="M 38.0 86.0 C 38.0 124.7 102.0 133.3 102.0 171.0" fill="none" stroke="#f032e6" stroke-width="1.6" opacity="0.75"/>
<path class="head" d="M 98.0 165.0 L 106.0 165.0 L 102.0 172.0 Z" fill="#f032e6"/>
<path class="hit" d="M 102.0 204.0 C 102.0 242.7 572.0 251.3 572.0 289.0" fill="none" stroke="transparent" stroke-width="12" pointer-events="stroke"/>
<path class="wire" d="M 102.0 204.0 C 102.0 242.7 572.0 251.3 572.0 289.0" fill="none" stroke="#f032e6" stroke-width="1.6" opacity="0.75"/>
<path class="head" d="M 568.0 283.0 L 576.0 283.0 L 572.0 290.0 Z" fill="#f032e6"/>
<path class="hit" d="M 572.0 322.0 C 572.0 360.7 558.0 369.3 558.0 407.0" fill="none" stroke="transparent" stroke-width="12" pointer-events="stroke"/>
<path class="wire" d="M 572.0 322.0 C 572.0 360.7 558.0 369.3 558.0 407.0" fill="none" stroke="#f032e6" stroke-width="1.6" opacity="0.75"/>
<path class="head" d="M 554.0 401.0 L 562.0 401.0 L 558.0 408.0 Z" fill="#f032e6"/>
<g class="box"><rect x="24.0" y="54.0" width="28" height="32" rx="3" fill="#f5f0e8" stroke="#f5f0e8" stroke-width="1"/><text x="38.0" y="75.8" text-anchor="middle" font-size="18" font-weight="700" fill="#26364a">M</text></g>
<g class="box"><rect x="88.0" y="172.0" width="28" height="32" rx="3" fill="#f5f0e8" stroke="#f5f0e8" stroke-width="1"/><text x="102.0" y="193.8" text-anchor="middle" font-size="18" font-weight="700" fill="#26364a">M</text></g>
<g class="box"><rect x="558.0" y="290.0" width="28" height="32" rx="3" fill="#f5f0e8" stroke="#f5f0e8" stroke-width="1"/><text x="572.0" y="311.8" text-anchor="middle" font-size="18" font-weight="700" fill="#26364a">M</text></g>
<g class="box"><rect x="544.0" y="408.0" width="28" height="32" rx="3" fill="#f5f0e8" stroke="#f5f0e8" stroke-width="1"/><text x="558.0" y="429.8" text-anchor="middle" font-size="18" font-weight="700" fill="#26364a">M</text></g>
</g>
<g class="strand" style="--c:#008080">
<path class="hit" d="M 618.0 86.0 C 618.0 124.7 248.0 133.3 248.0 171.0" fill="none" stroke="transparent" stroke-width="12" pointer-events="stroke"/>
<path class="wire" d="M 618.0 86.0 C 618.0 124.7 248.0 133.3 248.0 171.0" fill="none" stroke="#008080" stroke-width="1.6" opacity="0.75"/>
<path class="head" d="M 244.0 165.0 L 252.0 165.0 L 248.0 172.0 Z" fill="#008080"/>
<path class="hit" d="M 248.0 204.0 C 248.0 242.7 38.0 251.3 38.0 289.0" fill="none" stroke="transparent" stroke-width="12" pointer-events="stroke"/>
<path class="wire" d="M 248.0 204.0 C 248.0 242.7 38.0 251.3 38.0 289.0" fill="none" stroke="#008080" stroke-width="1.6" opacity="0.75"/>
<path class="head" d="M 34.0 283.0 L 42.0 283.0 L 38.0 290.0 Z" fill="#008080"/>
<path class="hit" d="M 38.0 322.0 C 38.0 360.7 38.0 369.3 38.0 407.0" fill="none" stroke="transparent" stroke-width="12" pointer-events="stroke"/>
<path class="wire" d="M 38.0 322.0 C 38.0 360.7 38.0 369.3 38.0 407.0" fill="none" stroke="#008080" stroke-width="1.6" opacity="0.75"/>
<path class="head" d="M 34.0 401.0 L 42.0 401.0 L 38.0 408.0 Z" fill="#008080"/>
<g class="box"><rect x="604.0" y="54.0" width="28" height="32" rx="3" fill="#f5f0e8" stroke="#f5f0e8" stroke-width="1"/><text x="618.0" y="75.8" text-anchor="middle" font-size="18" font-weight="700" fill="#26364a">N</text></g>
<g class="box"><rect x="234.0" y="172.0" width="28" height="32" rx="3" fill="#f5f0e8" stroke="#f5f0e8" stroke-width="1"/><text x="248.0" y="193.8" text-anchor="middle" font-size="18" font-weight="700" fill="#26364a">N</text></g>
<g class="box"><rect x="24.0" y="290.0" width="28" height="32" rx="3" fill="#f5f0e8" stroke="#f5f0e8" stroke-width="1"/><text x="38.0" y="311.8" text-anchor="middle" font-size="18" font-weight="700" fill="#26364a">N</text></g>
<g class="box"><rect x="24.0" y="408.0" width="28" height="32" rx="3" fill="#f5f0e8" stroke="#f5f0e8" stroke-width="1"/><text x="38.0" y="429.8" text-anchor="middle" font-size="18" font-weight="700" fill="#26364a">N</text></g>
</g>
<g class="strand" style="--c:#9A6324">
<path class="hit" d="M 394.0 86.0 C 394.0 124.7 540.0 133.3 540.0 171.0" fill="none" stroke="transparent" stroke-width="12" pointer-events="stroke"/>
<path class="wire" d="M 394.0 86.0 C 394.0 124.7 540.0 133.3 540.0 171.0" fill="none" stroke="#9A6324" stroke-width="1.6" opacity="0.75"/>
<path class="head" d="M 536.0 165.0 L 544.0 165.0 L 540.0 172.0 Z" fill="#9A6324"/>
<path class="hit" d="M 540.0 204.0 C 540.0 242.7 216.0 251.3 216.0 289.0" fill="none" stroke="transparent" stroke-width="12" pointer-events="stroke"/>
<path class="wire" d="M 540.0 204.0 C 540.0 242.7 216.0 251.3 216.0 289.0" fill="none" stroke="#9A6324" stroke-width="1.6" opacity="0.75"/>
<path class="head" d="M 212.0 283.0 L 220.0 283.0 L 216.0 290.0 Z" fill="#9A6324"/>
<path class="hit" d="M 216.0 322.0 C 216.0 360.7 672.0 369.3 672.0 407.0" fill="none" stroke="transparent" stroke-width="12" pointer-events="stroke"/>
<path class="wire" d="M 216.0 322.0 C 216.0 360.7 672.0 369.3 672.0 407.0" fill="none" stroke="#9A6324" stroke-width="1.6" opacity="0.75"/>
<path class="head" d="M 668.0 401.0 L 676.0 401.0 L 672.0 408.0 Z" fill="#9A6324"/>
<g class="box"><rect x="380.0" y="54.0" width="28" height="32" rx="3" fill="#f5f0e8" stroke="#f5f0e8" stroke-width="1"/><text x="394.0" y="75.8" text-anchor="middle" font-size="18" font-weight="700" fill="#26364a">P</text></g>
<g class="box"><rect x="526.0" y="172.0" width="28" height="32" rx="3" fill="#f5f0e8" stroke="#f5f0e8" stroke-width="1"/><text x="540.0" y="193.8" text-anchor="middle" font-size="18" font-weight="700" fill="#26364a">P</text></g>
<g class="box"><rect x="202.0" y="290.0" width="28" height="32" rx="3" fill="#f5f0e8" stroke="#f5f0e8" stroke-width="1"/><text x="216.0" y="311.8" text-anchor="middle" font-size="18" font-weight="700" fill="#26364a">P</text></g>
<g class="box"><rect x="658.0" y="408.0" width="28" height="32" rx="3" fill="#f5f0e8" stroke="#f5f0e8" stroke-width="1"/><text x="672.0" y="429.8" text-anchor="middle" font-size="18" font-weight="700" fill="#26364a">P</text></g>
</g>
<g class="strand" style="--c:#800000">
<path class="hit" d="M 102.0 86.0 C 102.0 124.7 38.0 133.3 38.0 171.0" fill="none" stroke="transparent" stroke-width="12" pointer-events="stroke"/>
<path class="wire" d="M 102.0 86.0 C 102.0 124.7 38.0 133.3 38.0 171.0" fill="none" stroke="#800000" stroke-width="1.6" opacity="0.75"/>
<path class="head" d="M 34.0 165.0 L 42.0 165.0 L 38.0 172.0 Z" fill="#800000"/>
<path class="hit" d="M 38.0 204.0 C 38.0 242.7 166.0 251.3 166.0 289.0" fill="none" stroke="transparent" stroke-width="12" pointer-events="stroke"/>
<path class="wire" d="M 38.0 204.0 C 38.0 242.7 166.0 251.3 166.0 289.0" fill="none" stroke="#800000" stroke-width="1.6" opacity="0.75"/>
<path class="head" d="M 162.0 283.0 L 170.0 283.0 L 166.0 290.0 Z" fill="#800000"/>
<path class="hit" d="M 166.0 322.0 C 166.0 360.7 166.0 369.3 166.0 407.0" fill="none" stroke="transparent" stroke-width="12" pointer-events="stroke"/>
<path class="wire" d="M 166.0 322.0 C 166.0 360.7 166.0 369.3 166.0 407.0" fill="none" stroke="#800000" stroke-width="1.6" opacity="0.75"/>
<path class="head" d="M 162.0 401.0 L 170.0 401.0 L 166.0 408.0 Z" fill="#800000"/>
<g class="box"><rect x="88.0" y="54.0" width="28" height="32" rx="3" fill="#f5f0e8" stroke="#f5f0e8" stroke-width="1"/><text x="102.0" y="75.8" text-anchor="middle" font-size="18" font-weight="700" fill="#26364a">R</text></g>
<g class="box"><rect x="24.0" y="172.0" width="28" height="32" rx="3" fill="#f5f0e8" stroke="#f5f0e8" stroke-width="1"/><text x="38.0" y="193.8" text-anchor="middle" font-size="18" font-weight="700" fill="#26364a">R</text></g>
<g class="box"><rect x="152.0" y="290.0" width="28" height="32" rx="3" fill="#f5f0e8" stroke="#f5f0e8" stroke-width="1"/><text x="166.0" y="311.8" text-anchor="middle" font-size="18" font-weight="700" fill="#26364a">R</text></g>
<g class="box"><rect x="152.0" y="408.0" width="28" height="32" rx="3" fill="#f5f0e8" stroke="#f5f0e8" stroke-width="1"/><text x="166.0" y="429.8" text-anchor="middle" font-size="18" font-weight="700" fill="#26364a">R</text></g>
</g>
<g class="strand" style="--c:#800000">
<path class="hit" d="M 184.0 86.0 C 184.0 124.7 166.0 133.3 166.0 171.0" fill="none" stroke="transparent" stroke-width="12" pointer-events="stroke"/>
<path class="wire" d="M 184.0 86.0 C 184.0 124.7 166.0 133.3 166.0 171.0" fill="none" stroke="#800000" stroke-width="1.6" opacity="0.75"/>
<path class="head" d="M 162.0 165.0 L 170.0 165.0 L 166.0 172.0 Z" fill="#800000"/>
<path class="hit" d="M 166.0 204.0 C 166.0 242.7 280.0 251.3 280.0 289.0" fill="none" stroke="transparent" stroke-width="12" pointer-events="stroke"/>
<path class="wire" d="M 166.0 204.0 C 166.0 242.7 280.0 251.3 280.0 289.0" fill="none" stroke="#800000" stroke-width="1.6" opacity="0.75"/>
<path class="head" d="M 276.0 283.0 L 284.0 283.0 L 280.0 290.0 Z" fill="#800000"/>
<path class="hit" d="M 280.0 322.0 C 280.0 360.7 330.0 369.3 330.0 407.0" fill="none" stroke="transparent" stroke-width="12" pointer-events="stroke"/>
<path class="wire" d="M 280.0 322.0 C 280.0 360.7 330.0 369.3 330.0 407.0" fill="none" stroke="#800000" stroke-width="1.6" opacity="0.75"/>
<path class="head" d="M 326.0 401.0 L 334.0 401.0 L 330.0 408.0 Z" fill="#800000"/>
<g class="box"><rect x="170.0" y="54.0" width="28" height="32" rx="3" fill="#f5f0e8" stroke="#f5f0e8" stroke-width="1"/><text x="184.0" y="75.8" text-anchor="middle" font-size="18" font-weight="700" fill="#26364a">R</text></g>
<g class="box"><rect x="152.0" y="172.0" width="28" height="32" rx="3" fill="#f5f0e8" stroke="#f5f0e8" stroke-width="1"/><text x="166.0" y="193.8" text-anchor="middle" font-size="18" font-weight="700" fill="#26364a">R</text></g>
<g class="box"><rect x="266.0" y="290.0" width="28" height="32" rx="3" fill="#f5f0e8" stroke="#f5f0e8" stroke-width="1"/><text x="280.0" y="311.8" text-anchor="middle" font-size="18" font-weight="700" fill="#26364a">R</text></g>
<g class="box"><rect x="316.0" y="408.0" width="28" height="32" rx="3" fill="#f5f0e8" stroke="#f5f0e8" stroke-width="1"/><text x="330.0" y="429.8" text-anchor="middle" font-size="18" font-weight="700" fill="#26364a">R</text></g>
</g>
<g class="strand" style="--c:#800000">
<path class="hit" d="M 522.0 86.0 C 522.0 124.7 376.0 133.3 376.0 171.0" fill="none" stroke="transparent" stroke-width="12" pointer-events="stroke"/>
<path class="wire" d="M 522.0 86.0 C 522.0 124.7 376.0 133.3 376.0 171.0" fill="none" stroke="#800000" stroke-width="1.6" opacity="0.75"/>
<path class="head" d="M 372.0 165.0 L 380.0 165.0 L 376.0 172.0 Z" fill="#800000"/>
<path class="hit" d="M 376.0 204.0 C 376.0 242.7 636.0 251.3 636.0 289.0" fill="none" stroke="transparent" stroke-width="12" pointer-events="stroke"/>
<path class="wire" d="M 376.0 204.0 C 376.0 242.7 636.0 251.3 636.0 289.0" fill="none" stroke="#800000" stroke-width="1.6" opacity="0.75"/>
<path class="head" d="M 632.0 283.0 L 640.0 283.0 L 636.0 290.0 Z" fill="#800000"/>
<path class="hit" d="M 636.0 322.0 C 636.0 360.7 590.0 369.3 590.0 407.0" fill="none" stroke="transparent" stroke-width="12" pointer-events="stroke"/>
<path class="wire" d="M 636.0 322.0 C 636.0 360.7 590.0 369.3 590.0 407.0" fill="none" stroke="#800000" stroke-width="1.6" opacity="0.75"/>
<path class="head" d="M 586.0 401.0 L 594.0 401.0 L 590.0 408.0 Z" fill="#800000"/>
<g class="box"><rect x="508.0" y="54.0" width="28" height="32" rx="3" fill="#f5f0e8" stroke="#f5f0e8" stroke-width="1"/><text x="522.0" y="75.8" text-anchor="middle" font-size="18" font-weight="700" fill="#26364a">R</text></g>
<g class="box"><rect x="362.0" y="172.0" width="28" height="32" rx="3" fill="#f5f0e8" stroke="#f5f0e8" stroke-width="1"/><text x="376.0" y="193.8" text-anchor="middle" font-size="18" font-weight="700" fill="#26364a">R</text></g>
<g class="box"><rect x="622.0" y="290.0" width="28" height="32" rx="3" fill="#f5f0e8" stroke="#f5f0e8" stroke-width="1"/><text x="636.0" y="311.8" text-anchor="middle" font-size="18" font-weight="700" fill="#26364a">R</text></g>
<g class="box"><rect x="576.0" y="408.0" width="28" height="32" rx="3" fill="#f5f0e8" stroke="#f5f0e8" stroke-width="1"/><text x="590.0" y="429.8" text-anchor="middle" font-size="18" font-weight="700" fill="#26364a">R</text></g>
</g>
<g class="strand" style="--c:#1f9bd8">
<path class="hit" d="M 554.0 86.0 C 554.0 124.7 636.0 133.3 636.0 171.0" fill="none" stroke="transparent" stroke-width="12" pointer-events="stroke"/>
<path class="wire" d="M 554.0 86.0 C 554.0 124.7 636.0 133.3 636.0 171.0" fill="none" stroke="#1f9bd8" stroke-width="1.6" opacity="0.75"/>
<path class="head" d="M 632.0 165.0 L 640.0 165.0 L 636.0 172.0 Z" fill="#1f9bd8"/>
<path class="hit" d="M 636.0 204.0 C 636.0 242.7 458.0 251.3 458.0 289.0" fill="none" stroke="transparent" stroke-width="12" pointer-events="stroke"/>
<path class="wire" d="M 636.0 204.0 C 636.0 242.7 458.0 251.3 458.0 289.0" fill="none" stroke="#1f9bd8" stroke-width="1.6" opacity="0.75"/>
<path class="head" d="M 454.0 283.0 L 462.0 283.0 L 458.0 290.0 Z" fill="#1f9bd8"/>
<path class="hit" d="M 458.0 322.0 C 458.0 360.7 476.0 369.3 476.0 407.0" fill="none" stroke="transparent" stroke-width="12" pointer-events="stroke"/>
<path class="wire" d="M 458.0 322.0 C 458.0 360.7 476.0 369.3 476.0 407.0" fill="none" stroke="#1f9bd8" stroke-width="1.6" opacity="0.75"/>
<path class="head" d="M 472.0 401.0 L 480.0 401.0 L 476.0 408.0 Z" fill="#1f9bd8"/>
<g class="box"><rect x="540.0" y="54.0" width="28" height="32" rx="3" fill="#f5f0e8" stroke="#f5f0e8" stroke-width="1"/><text x="554.0" y="75.8" text-anchor="middle" font-size="18" font-weight="700" fill="#26364a">S</text></g>
<g class="box"><rect x="622.0" y="172.0" width="28" height="32" rx="3" fill="#f5f0e8" stroke="#f5f0e8" stroke-width="1"/><text x="636.0" y="193.8" text-anchor="middle" font-size="18" font-weight="700" fill="#26364a">S</text></g>
<g class="box"><rect x="444.0" y="290.0" width="28" height="32" rx="3" fill="#f5f0e8" stroke="#f5f0e8" stroke-width="1"/><text x="458.0" y="311.8" text-anchor="middle" font-size="18" font-weight="700" fill="#26364a">S</text></g>
<g class="box"><rect x="462.0" y="408.0" width="28" height="32" rx="3" fill="#f5f0e8" stroke="#f5f0e8" stroke-width="1"/><text x="476.0" y="429.8" text-anchor="middle" font-size="18" font-weight="700" fill="#26364a">S</text></g>
</g>
<g class="strand" style="--c:#000075">
<path class="hit" d="M 216.0 86.0 C 216.0 124.7 604.0 133.3 604.0 171.0" fill="none" stroke="transparent" stroke-width="12" pointer-events="stroke"/>
<path class="wire" d="M 216.0 86.0 C 216.0 124.7 604.0 133.3 604.0 171.0" fill="none" stroke="#000075" stroke-width="1.6" opacity="0.75"/>
<path class="head" d="M 600.0 165.0 L 608.0 165.0 L 604.0 172.0 Z" fill="#000075"/>
<path class="hit" d="M 604.0 204.0 C 604.0 242.7 604.0 251.3 604.0 289.0" fill="none" stroke="transparent" stroke-width="12" pointer-events="stroke"/>
<path class="wire" d="M 604.0 204.0 C 604.0 242.7 604.0 251.3 604.0 289.0" fill="none" stroke="#000075" stroke-width="1.6" opacity="0.75"/>
<path class="head" d="M 600.0 283.0 L 608.0 283.0 L 604.0 290.0 Z" fill="#000075"/>
<path class="hit" d="M 604.0 322.0 C 604.0 360.7 640.0 369.3 640.0 407.0" fill="none" stroke="transparent" stroke-width="12" pointer-events="stroke"/>
<path class="wire" d="M 604.0 322.0 C 604.0 360.7 640.0 369.3 640.0 407.0" fill="none" stroke="#000075" stroke-width="1.6" opacity="0.75"/>
<path class="head" d="M 636.0 401.0 L 644.0 401.0 L 640.0 408.0 Z" fill="#000075"/>
<g class="box"><rect x="202.0" y="54.0" width="28" height="32" rx="3" fill="#f5f0e8" stroke="#f5f0e8" stroke-width="1"/><text x="216.0" y="75.8" text-anchor="middle" font-size="18" font-weight="700" fill="#26364a">U</text></g>
<g class="box"><rect x="590.0" y="172.0" width="28" height="32" rx="3" fill="#f5f0e8" stroke="#f5f0e8" stroke-width="1"/><text x="604.0" y="193.8" text-anchor="middle" font-size="18" font-weight="700" fill="#26364a">U</text></g>
<g class="box"><rect x="590.0" y="290.0" width="28" height="32" rx="3" fill="#f5f0e8" stroke="#f5f0e8" stroke-width="1"/><text x="604.0" y="311.8" text-anchor="middle" font-size="18" font-weight="700" fill="#26364a">U</text></g>
<g class="box"><rect x="626.0" y="408.0" width="28" height="32" rx="3" fill="#f5f0e8" stroke="#f5f0e8" stroke-width="1"/><text x="640.0" y="429.8" text-anchor="middle" font-size="18" font-weight="700" fill="#26364a">U</text></g>
</g>
<g class="strand" style="--c:#808000">
<path class="hit" d="M 248.0 86.0 C 248.0 124.7 312.0 133.3 312.0 171.0" fill="none" stroke="transparent" stroke-width="12" pointer-events="stroke"/>
<path class="wire" d="M 248.0 86.0 C 248.0 124.7 312.0 133.3 312.0 171.0" fill="none" stroke="#808000" stroke-width="1.6" opacity="0.75"/>
<path class="head" d="M 308.0 165.0 L 316.0 165.0 L 312.0 172.0 Z" fill="#808000"/>
<path class="hit" d="M 312.0 204.0 C 312.0 242.7 102.0 251.3 102.0 289.0" fill="none" stroke="transparent" stroke-width="12" pointer-events="stroke"/>
<path class="wire" d="M 312.0 204.0 C 312.0 242.7 102.0 251.3 102.0 289.0" fill="none" stroke="#808000" stroke-width="1.6" opacity="0.75"/>
<path class="head" d="M 98.0 283.0 L 106.0 283.0 L 102.0 290.0 Z" fill="#808000"/>
<path class="hit" d="M 102.0 322.0 C 102.0 360.7 102.0 369.3 102.0 407.0" fill="none" stroke="transparent" stroke-width="12" pointer-events="stroke"/>
<path class="wire" d="M 102.0 322.0 C 102.0 360.7 102.0 369.3 102.0 407.0" fill="none" stroke="#808000" stroke-width="1.6" opacity="0.75"/>
<path class="head" d="M 98.0 401.0 L 106.0 401.0 L 102.0 408.0 Z" fill="#808000"/>
<g class="box"><rect x="234.0" y="54.0" width="28" height="32" rx="3" fill="#f5f0e8" stroke="#f5f0e8" stroke-width="1"/><text x="248.0" y="75.8" text-anchor="middle" font-size="18" font-weight="700" fill="#26364a">V</text></g>
<g class="box"><rect x="298.0" y="172.0" width="28" height="32" rx="3" fill="#f5f0e8" stroke="#f5f0e8" stroke-width="1"/><text x="312.0" y="193.8" text-anchor="middle" font-size="18" font-weight="700" fill="#26364a">V</text></g>
<g class="box"><rect x="88.0" y="290.0" width="28" height="32" rx="3" fill="#f5f0e8" stroke="#f5f0e8" stroke-width="1"/><text x="102.0" y="311.8" text-anchor="middle" font-size="18" font-weight="700" fill="#26364a">V</text></g>
<g class="box"><rect x="88.0" y="408.0" width="28" height="32" rx="3" fill="#f5f0e8" stroke="#f5f0e8" stroke-width="1"/><text x="102.0" y="429.8" text-anchor="middle" font-size="18" font-weight="700" fill="#26364a">V</text></g>
</g>
</svg>