<svg xmlns="http://www.w3.org/2000/svg" viewBox="0 0 360 360" width="360" height="360" shape-rendering="crispEdges">
<!-- pointy hat -->
<rect x="160" y="20" width="20" height="20" fill="#3a6ea5"/>
<rect x="180" y="20" width="20" height="20" fill="#3a6ea5"/>
<rect x="160" y="40" width="20" height="20" fill="#3a6ea5"/>
<rect x="180" y="40" width="20" height="20" fill="#3a6ea5"/>
<rect x="140" y="60" width="20" height="20" fill="#3a6ea5"/>
<rect x="160" y="60" width="20" height="20" fill="#3a6ea5"/>
<rect x="180" y="60" width="20" height="20" fill="#3a6ea5"/>
<rect x="200" y="60" width="20" height="20" fill="#3a6ea5"/>
<rect x="140" y="80" width="20" height="20" fill="#3a6ea5"/>
<rect x="160" y="80" width="20" height="20" fill="#3a6ea5"/>
<rect x="180" y="80" width="20" height="20" fill="#3a6ea5"/>
<rect x="200" y="80" width="20" height="20" fill="#3a6ea5"/>
<rect x="120" y="100" width="20" height="20" fill="#3a6ea5"/>
<rect x="140" y="100" width="20" height="20" fill="#3a6ea5"/>
<rect x="160" y="100" width="20" height="20" fill="#3a6ea5"/>
<rect x="180" y="100" width="20" height="20" fill="#3a6ea5"/>
<rect x="200" y="100" width="20" height="20" fill="#3a6ea5"/>
<rect x="220" y="100" width="20" height="20" fill="#6e93bd"/>
<rect x="120" y="120" width="20" height="20" fill="#3a6ea5"/>
<rect x="140" y="120" width="20" height="20" fill="#3a6ea5"/>
<rect x="160" y="120" width="20" height="20" fill="#3a6ea5"/>
<rect x="180" y="120" width="20" height="20" fill="#3a6ea5"/>
<rect x="200" y="120" width="20" height="20" fill="#3a6ea5"/>
<rect x="220" y="120" width="20" height="20" fill="#6e93bd"/>
<rect x="80" y="140" width="20" height="20" fill="#3a6ea5"/>
<rect x="100" y="140" width="20" height="20" fill="#3a6ea5"/>
<rect x="120" y="140" width="20" height="20" fill="#3a6ea5"/>
<rect x="140" y="140" width="20" height="20" fill="#3a6ea5"/>
<rect x="160" y="140" width="20" height="20" fill="#3a6ea5"/>
<rect x="180" y="140" width="20" height="20" fill="#3a6ea5"/>
<rect x="200" y="140" width="20" height="20" fill="#3a6ea5"/>
<rect x="220" y="140" width="20" height="20" fill="#3a6ea5"/>
<rect x="240" y="140" width="20" height="20" fill="#3a6ea5"/>
<rect x="260" y="140" width="20" height="20" fill="#6e93bd"/>
<!-- hat band -->
<rect x="60" y="160" width="20" height="20" fill="#9fbcda"/>
<rect x="80" y="160" width="20" height="20" fill="#9fbcda"/>
<rect x="100" y="160" width="20" height="20" fill="#9fbcda"/>
<rect x="120" y="160" width="20" height="20" fill="#9fbcda"/>
<rect x="140" y="160" width="20" height="20" fill="#9fbcda"/>
<rect x="160" y="160" width="20" height="20" fill="#9fbcda"/>
<rect x="180" y="160" width="20" height="20" fill="#9fbcda"/>
<rect x="200" y="160" width="20" height="20" fill="#9fbcda"/>
<rect x="220" y="160" width="20" height="20" fill="#9fbcda"/>
<rect x="240" y="160" width="20" height="20" fill="#9fbcda"/>
<rect x="260" y="160" width="20" height="20" fill="#9fbcda"/>
<rect x="280" y="160" width="20" height="20" fill="#9fbcda"/>
<!-- face -->
<rect x="60" y="180" width="20" height="20" fill="#f5f0e8"/>
<rect x="80" y="180" width="20" height="20" fill="#f5f0e8"/>
<rect x="140" y="180" width="20" height="20" fill="#f5f0e8"/>
<rect x="160" y="180" width="20" height="20" fill="#f5f0e8"/>
<rect x="180" y="180" width="20" height="20" fill="#f5f0e8"/>
<rect x="200" y="180" width="20" height="20" fill="#f5f0e8"/>
<rect x="260" y="180" width="20" height="20" fill="#f5f0e8"/>
<rect x="280" y="180" width="20" height="20" fill="#f5f0e8"/>
<rect x="60" y="220" width="20" height="20" fill="#f5f0e8"/>
<rect x="160" y="220" width="20" height="20" fill="#f5f0e8"/>
<rect x="180" y="220" width="20" height="20" fill="#f5f0e8"/>
<rect x="280" y="220" width="20" height="20" fill="#f5f0e8"/>
<rect x="60" y="240" width="20" height="20" fill="#f5f0e8"/>
<rect x="80" y="240" width="20" height="20" fill="#f5f0e8"/>
<rect x="140" y="240" width="20" height="20" fill="#f5f0e8"/>
<rect x="160" y="240" width="20" height="20" fill="#f5f0e8"/>
<rect x="180" y="240" width="20" height="20" fill="#f5f0e8"/>
<rect x="200" y="240" width="20" height="20" fill="#f5f0e8"/>
<rect x="260" y="240" width="20" height="20" fill="#f5f0e8"/>
<rect x="280" y="240" width="20" height="20" fill="#f5f0e8"/>
<!-- jaw -->
<rect x="80" y="260" width="20" height="20" fill="#f5f0e8"/>
<rect x="100" y="260" width="20" height="20" fill="#f5f0e8"/>
<rect x="120" y="260" width="20" height="20" fill="#f5f0e8"/>
<rect x="140" y="260" width="20" height="20" fill="#f5f0e8"/>
<rect x="200" y="260" width="20" height="20" fill="#f5f0e8"/>
<rect x="220" y="260" width="20" height="20" fill="#f5f0e8"/>
<rect x="240" y="260" width="20" height="20" fill="#f5f0e8"/>
<rect x="260" y="260" width="20" height="20" fill="#f5f0e8"/>
<!-- mouth -->
<rect x="160" y="260" width="20" height="20" fill="#6e93bd"/>
<rect x="180" y="260" width="20" height="20" fill="#6e93bd"/>
<!-- neck -->
<rect x="160" y="280" width="20" height="20" fill="#f5f0e8"/>
<rect x="180" y="280" width="20" height="20" fill="#f5f0e8"/>
<!-- glasses: round rims -->
<rect x="100" y="180" width="20" height="20" fill="#3a6ea5"/>
<rect x="120" y="180" width="20" height="20" fill="#3a6ea5"/>
<rect x="220" y="180" width="20" height="20" fill="#3a6ea5"/>
<rect x="240" y="180" width="20" height="20" fill="#3a6ea5"/>
<rect x="60" y="200" width="20" height="20" fill="#3a6ea5"/>
<rect x="80" y="200" width="20" height="20" fill="#3a6ea5"/>
<rect x="140" y="200" width="20" height="20" fill="#3a6ea5"/>
<rect x="160" y="200" width="20" height="20" fill="#3a6ea5"/>
<rect x="180" y="200" width="20" height="20" fill="#3a6ea5"/>
<rect x="200" y="200" width="20" height="20" fill="#3a6ea5"/>
<rect x="260" y="200" width="20" height="20" fill="#3a6ea5"/>
<rect x="280" y="200" width="20" height="20" fill="#3a6ea5"/>
<rect x="80" y="220" width="20" height="20" fill="#3a6ea5"/>
<rect x="140" y="220" width="20" height="20" fill="#3a6ea5"/>
<rect x="200" y="220" width="20" height="20" fill="#3a6ea5"/>
<rect x="260" y="220" width="20" height="20" fill="#3a6ea5"/>
<rect x="100" y="240" width="20" height="20" fill="#3a6ea5"/>
<rect x="120" y="240" width="20" height="20" fill="#3a6ea5"/>
<rect x="220" y="240" width="20" height="20" fill="#3a6ea5"/>
<rect x="240" y="240" width="20" height="20" fill="#3a6ea5"/>
<!-- left glowing eye (2x2) -->
<rect x="100" y="200" width="20" height="20" fill="#d97757"><animate attributeName="fill" calcMode="discrete" values="#d97757;#9fbcda;#d97757" keyTimes="0;0.5;1" dur="1.2s" repeatCount="indefinite"/></rect>
<rect x="120" y="200" width="20" height="20" fill="#d97757"><animate attributeName="fill" calcMode="discrete" values="#d97757;#9fbcda;#d97757" keyTimes="0;0.5;1" dur="1.2s" repeatCount="indefinite"/></rect>
<rect x="100" y="220" width="20" height="20" fill="#d97757"><animate attributeName="fill" calcMode="discrete" values="#d97757;#9fbcda;#d97757" keyTimes="0;0.5;1" dur="1.2s" repeatCount="indefinite"/></rect>
<rect x="120" y="220" width="20" height="20" fill="#d97757"><animate attributeName="fill" calcMode="discrete" values="#d97757;#9fbcda;#d97757" keyTimes="0;0.5;1" dur="1.2s" repeatCount="indefinite"/></rect>
<!-- right glowing eye (2x2) -->
<rect x="220" y="200" width="20" height="20" fill="#d97757"><animate attributeName="fill" calcMode="discrete" values="#d97757;#9fbcda;#d97757" keyTimes="0;0.5;1" dur="1.2s" repeatCount="indefinite"/></rect>
<rect x="240" y="200" width="20" height="20" fill="#d97757"><animate attributeName="fill" calcMode="discrete" values="#d97757;#9fbcda;#d97757" keyTimes="0;0.5;1" dur="1.2s" repeatCount="indefinite"/></rect>
<rect x="220" y="220" width="20" height="20" fill="#d97757"><animate attributeName="fill" calcMode="discrete" values="#d97757;#9fbcda;#d97757" keyTimes="0;0.5;1" dur="1.2s" repeatCount="indefinite"/></rect>
<rect x="240" y="220" width="20" height="20" fill="#d97757"><animate attributeName="fill" calcMode="discrete" values="#d97757;#9fbcda;#d97757" keyTimes="0;0.5;1" dur="1.2s" repeatCount="indefinite"/></rect>
<!-- robe / shoulders -->
<rect x="60" y="280" width="20" height="20" fill="#3a6ea5"/>
<rect x="80" y="280" width="20" height="20" fill="#3a6ea5"/>
<rect x="100" y="280" width="20" height="20" fill="#3a6ea5"/>
<rect x="120" y="280" width="20" height="20" fill="#3a6ea5"/>
<rect x="140" y="280" width="20" height="20" fill="#3a6ea5"/>
<rect x="200" y="280" width="20" height="20" fill="#3a6ea5"/>
<rect x="220" y="280" width="20" height="20" fill="#3a6ea5"/>
<rect x="240" y="280" width="20" height="20" fill="#3a6ea5"/>
<rect x="260" y="280" width="20" height="20" fill="#3a6ea5"/>
<rect x="280" y="280" width="20" height="20" fill="#3a6ea5"/>
<rect x="40" y="300" width="20" height="20" fill="#3a6ea5"/>
<rect x="60" y="300" width="20" height="20" fill="#3a6ea5"/>
<rect x="80" y="300" width="20" height="20" fill="#3a6ea5"/>
<rect x="100" y="300" width="20" height="20" fill="#3a6ea5"/>
<rect x="120" y="300" width="20" height="20" fill="#3a6ea5"/>
<rect x="140" y="300" width="20" height="20" fill="#9fbcda"/>
<rect x="160" y="300" width="20" height="20" fill="#9fbcda"/>
<rect x="180" y="300" width="20" height="20" fill="#9fbcda"/>
<rect x="200" y="300" width="20" height="20" fill="#9fbcda"/>
<rect x="220" y="300" width="20" height="20" fill="#3a6ea5"/>
<rect x="240" y="300" width="20" height="20" fill="#3a6ea5"/>
<rect x="260" y="300" width="20" height="20" fill="#3a6ea5"/>
<rect x="280" y="300" width="20" height="20" fill="#3a6ea5"/>
<rect x="300" y="300" width="20" height="20" fill="#3a6ea5"/>
<rect x="20" y="320" width="20" height="20" fill="#3a6ea5"/>
<rect x="40" y="320" width="20" height="20" fill="#3a6ea5"/>
<rect x="60" y="320" width="20" height="20" fill="#3a6ea5"/>
<rect x="80" y="320" width="20" height="20" fill="#3a6ea5"/>
<rect x="100" y="320" width="20" height="20" fill="#3a6ea5"/>
<rect x="120" y="320" width="20" height="20" fill="#6e93bd"/>
<rect x="140" y="320" width="20" height="20" fill="#6e93bd"/>
<rect x="160" y="320" width="20" height="20" fill="#6e93bd"/>
<rect x="180" y="320" width="20" height="20" fill="#6e93bd"/>
<rect x="200" y="320" width="20" height="20" fill="#6e93bd"/>
<rect x="220" y="320" width="20" height="20" fill="#6e93bd"/>
<rect x="240" y="320" width="20" height="20" fill="#3a6ea5"/>
<rect x="260" y="320" width="20" height="20" fill="#3a6ea5"/>
<rect x="280" y="320" width="20" height="20" fill="#3a6ea5"/>
<rect x="300" y="320" width="20" height="20" fill="#3a6ea5"/>
<rect x="320" y="320" width="20" height="20" fill="#3a6ea5"/>
<!-- twinkling stars on hat -->
<rect x="160" y="100" width="20" height="20" fill="#d97757"><animate attributeName="opacity" calcMode="discrete" values="1;0" keyTimes="0;0.5" dur="0.8s" repeatCount="indefinite"/></rect>
<rect x="200" y="60" width="20" height="20" fill="#d97757"><animate attributeName="opacity" calcMode="discrete" values="0;1" keyTimes="0;0.5" dur="1.0s" repeatCount="indefinite"/></rect>
<rect x="140" y="120" width="20" height="20" fill="#d97757"><animate attributeName="opacity" calcMode="discrete" values="1;0" keyTimes="0;0.5" dur="1.3s" begin="0.4s" repeatCount="indefinite"/></rect>
</svg>
